# xmcd
#
# Track frame offsets: 
#        150
#        16601
#        33927
#        63313
#        98974
#        113851
#        136363
#        151760
#        168931
#        193905
#        218719
#        233340
#        251699
#        266563
#        285452
#        304481
#        319470
#        335509
#
# Disc length: 4729 seconds
#
# Revision: 0
# Processed by: cddbd v1.5.1PL0 Copyright (c) Steve Scherf et al.
# Submitted via: ExactAudioCopy v0.95a4
#
DISCID=f9127712
DTITLE=Eric Clapton - TheBest Of (China)
DYEAR=2004
DGENRE=Blues
TTITLE0=Walkin' Blues
TTITLE1=Nobody Knows You When You're Down and Out
TTITLE2=Running On Faith
TTITLE3=Old Love
TTITLE4=Hey Hey
TTITLE5=She's Waiting
TTITLE6=San Francisco Bay Blues
TTITLE7=Man Overboard
TTITLE8=Pretty Girl
TTITLE9=Looney Stranger
TTITLE10=Signe
TTITLE11=Ain't Going Down
TTITLE12=I've Got A Rock N' Roll Heart
TTITLE13=The Shape You're In
TTITLE14=It's In The Way That You Use It
TTITLE15=Everybody Oughta Make A Change
TTITLE16=Crosscut Saw
TTITLE17=Slow Down Linda
EXTD=
EXTT0=
EXTT1=
EXTT2=
EXTT3=
EXTT4=
EXTT5=
EXTT6=
EXTT7=
EXTT8=
EXTT9=
EXTT10=
EXTT11=
EXTT12=
EXTT13=
EXTT14=
EXTT15=
EXTT16=
EXTT17=
PLAYORDER=
